<svg xmlns="http://www.w3.org/2000/svg" xmlns:xlink="http://www.w3.org/1999/xlink" width="2000" zoomAndPan="magnify" viewBox="0 0 1500 1499.999933" height="2000" preserveAspectRatio="xMidYMid meet" version="1.0"><defs><g/></defs><g fill="#2563eb" fill-opacity="1"><g transform="translate(165.773457, 928.1249)"><g><path d="M 5.359375 -343.796875 C 5.359375 -363.066406 9.015625 -382.25 16.328125 -401.34375 C 23.648438 -420.445312 33.203125 -438.476562 44.984375 -455.4375 C 56.765625 -472.394531 69.4375 -487.476562 83 -500.6875 C 96.5625 -513.894531 109.679688 -524.335938 122.359375 -532.015625 C 135.035156 -539.691406 145.835938 -543.53125 154.765625 -543.53125 C 171.179688 -543.53125 185.101562 -539.15625 196.53125 -530.40625 C 207.957031 -521.664062 217.148438 -510.691406 224.109375 -497.484375 C 231.066406 -484.273438 236.148438 -470.972656 239.359375 -457.578125 C 242.578125 -444.191406 244.1875 -432.859375 244.1875 -423.578125 L 244.1875 -338.96875 C 248.113281 -363.25 255.253906 -387.523438 265.609375 -411.796875 C 275.960938 -436.078125 289.082031 -458.125 304.96875 -477.9375 C 320.851562 -497.75 338.96875 -513.632812 359.3125 -525.59375 C 379.664062 -537.550781 401.800781 -543.53125 425.71875 -543.53125 C 440.71875 -543.53125 454.550781 -540.046875 467.21875 -533.078125 C 479.894531 -526.117188 491.050781 -516.835938 500.6875 -505.234375 C 510.332031 -493.640625 518.546875 -481.054688 525.328125 -467.484375 C 532.109375 -453.921875 537.28125 -440.445312 540.84375 -427.0625 C 544.414062 -413.675781 546.203125 -401.628906 546.203125 -390.921875 C 546.203125 -373.421875 543.253906 -355.742188 537.359375 -337.890625 C 531.472656 -320.046875 522.550781 -303.625 510.59375 -288.625 C 498.632812 -273.632812 483.550781 -261.5 465.34375 -252.21875 C 447.132812 -242.9375 425.535156 -238.296875 400.546875 -238.296875 C 389.484375 -238.296875 380.648438 -238.382812 374.046875 -238.5625 C 367.441406 -238.738281 360.925781 -238.914062 354.5 -239.09375 C 348.070312 -239.28125 338.96875 -239.375 327.1875 -239.375 C 321.125 -239.375 314.609375 -238.300781 307.640625 -236.15625 C 300.679688 -234.007812 297.203125 -230.441406 297.203125 -225.453125 C 297.203125 -221.523438 299.429688 -218.578125 303.890625 -216.609375 C 308.359375 -214.648438 313.894531 -213.398438 320.5 -212.859375 C 327.101562 -212.328125 333.617188 -212.0625 340.046875 -212.0625 C 346.472656 -212.0625 351.648438 -212.0625 355.578125 -212.0625 L 388.765625 -212.0625 C 401.617188 -212.0625 411.613281 -210.1875 418.75 -206.4375 C 425.894531 -202.6875 432.054688 -196.523438 437.234375 -187.953125 C 442.410156 -179.390625 448.566406 -168.144531 455.703125 -154.21875 C 474.628906 -117.8125 490.25 -89.070312 502.5625 -68 C 514.882812 -46.9375 525.148438 -31.40625 533.359375 -21.40625 C 541.566406 -11.414062 548.882812 -4.992188 555.3125 -2.140625 L 555.3125 0 L 434.828125 0 C 418.398438 0 405.546875 -2.585938 396.265625 -7.765625 C 386.984375 -12.941406 378.238281 -23.207031 370.03125 -38.5625 C 364.320312 -49.269531 358.164062 -61.671875 351.5625 -75.765625 C 344.957031 -89.867188 338.257812 -104.414062 331.46875 -119.40625 C 324.6875 -134.40625 318.171875 -148.421875 311.921875 -161.453125 C 305.679688 -174.484375 300.414062 -185.101562 296.125 -193.3125 C 292.914062 -199.382812 290.238281 -205.097656 288.09375 -210.453125 C 285.957031 -215.804688 284.890625 -219.554688 284.890625 -221.703125 C 284.890625 -227.765625 286.40625 -232.582031 289.4375 -236.15625 C 292.46875 -239.726562 295.59375 -242.226562 298.8125 -243.65625 C 313.800781 -250.4375 328.703125 -258.46875 343.515625 -267.75 C 358.335938 -277.03125 371.640625 -287.378906 383.421875 -298.796875 C 395.203125 -310.222656 404.660156 -322.363281 411.796875 -335.21875 C 418.941406 -348.070312 422.515625 -361.28125 422.515625 -374.84375 C 422.515625 -386.625 419.742188 -398.046875 414.203125 -409.109375 C 408.671875 -420.179688 401.082031 -429.195312 391.4375 -436.15625 C 381.800781 -443.125 371.097656 -446.609375 359.328125 -446.609375 C 344.328125 -446.609375 329.953125 -441.785156 316.203125 -432.140625 C 302.460938 -422.503906 290.148438 -410.28125 279.265625 -395.46875 C 268.378906 -380.65625 259.8125 -365.125 253.5625 -348.875 C 247.3125 -332.632812 244.1875 -318.085938 244.1875 -305.234375 L 244.1875 -148.875 C 244.1875 -128.164062 240.972656 -108.4375 234.546875 -89.6875 C 228.117188 -70.945312 219.015625 -54.257812 207.234375 -39.625 C 195.453125 -24.988281 181.617188 -13.382812 165.734375 -4.8125 C 149.847656 3.746094 132.625 8.03125 114.0625 8.03125 C 102.632812 8.03125 93.082031 7.046875 85.40625 5.078125 C 77.738281 3.117188 70.332031 1.425781 63.1875 0 L 24.640625 -142.4375 C 31.773438 -138.875 40.609375 -135.394531 51.140625 -132 C 61.671875 -128.601562 72.289062 -125.832031 83 -123.6875 C 93.707031 -121.550781 103.171875 -120.484375 111.390625 -120.484375 C 130.304688 -120.484375 147.257812 -124.765625 162.25 -133.328125 C 177.25 -141.898438 190.191406 -153.503906 201.078125 -168.140625 C 211.960938 -182.785156 220.257812 -199.117188 225.96875 -217.140625 C 231.6875 -235.171875 234.546875 -253.644531 234.546875 -272.5625 C 234.546875 -296.125 229.722656 -318.613281 220.078125 -340.03125 C 210.441406 -361.457031 197.769531 -380.46875 182.0625 -397.0625 C 166.363281 -413.664062 149.226562 -426.785156 130.65625 -436.421875 C 112.09375 -446.066406 94.066406 -450.890625 76.578125 -450.890625 C 66.578125 -450.890625 58.003906 -448.476562 50.859375 -443.65625 C 43.722656 -438.84375 40.15625 -431.4375 40.15625 -421.4375 C 40.15625 -410.375 45.0625 -398.503906 54.875 -385.828125 C 64.695312 -373.148438 77.550781 -361.546875 93.4375 -351.015625 C 109.332031 -340.484375 126.472656 -332.363281 144.859375 -326.65625 C 163.242188 -320.945312 181.003906 -319.335938 198.140625 -321.828125 C 200.273438 -315.046875 200.453125 -306.300781 198.671875 -295.59375 C 196.890625 -284.882812 193.675781 -273.640625 189.03125 -261.859375 C 184.382812 -250.078125 179.117188 -239.007812 173.234375 -228.65625 C 167.347656 -218.300781 161.367188 -209.910156 155.296875 -203.484375 C 149.222656 -197.054688 143.6875 -193.84375 138.6875 -193.84375 C 124.414062 -193.84375 109.515625 -197.945312 93.984375 -206.15625 C 78.453125 -214.375 63.992188 -225.441406 50.609375 -239.359375 C 37.222656 -253.285156 26.332031 -269.265625 17.9375 -287.296875 C 9.550781 -305.328125 5.359375 -324.160156 5.359375 -343.796875 Z M 5.359375 -343.796875 "/></g></g></g><g fill="#2563eb" fill-opacity="1"><g transform="translate(726.433103, 928.1249)"><g><path d="M 5.359375 -330.40625 C 5.359375 -348.25 9.550781 -367.078125 17.9375 -386.890625 C 26.332031 -406.710938 37.847656 -425.90625 52.484375 -444.46875 C 67.117188 -463.03125 83.984375 -479.71875 103.078125 -494.53125 C 122.179688 -509.34375 142.441406 -521.210938 163.859375 -530.140625 C 185.285156 -539.066406 206.882812 -543.53125 228.65625 -543.53125 C 251.144531 -543.53125 271.046875 -537.816406 288.359375 -526.390625 C 305.679688 -514.972656 321.660156 -498.734375 336.296875 -477.671875 C 350.929688 -456.609375 365.296875 -431.617188 379.390625 -402.703125 C 393.492188 -373.785156 408.757812 -342.007812 425.1875 -307.375 C 441.96875 -271.675781 459.28125 -236.867188 477.125 -202.953125 C 494.976562 -169.035156 512.648438 -140.476562 530.140625 -117.28125 L 530.140625 -149.40625 C 530.140625 -180.820312 527.460938 -213.21875 522.109375 -246.59375 C 516.753906 -279.976562 509.078125 -312.285156 499.078125 -343.515625 C 489.085938 -374.753906 477.128906 -403.492188 463.203125 -429.734375 C 449.285156 -455.972656 433.847656 -478.109375 416.890625 -496.140625 C 399.929688 -514.171875 381.8125 -526.21875 362.53125 -532.28125 L 362.53125 -535.5 L 574.59375 -535.5 L 574.59375 -532.828125 C 566.019531 -529.960938 558.519531 -522.460938 552.09375 -510.328125 C 545.675781 -498.191406 542.46875 -481.234375 542.46875 -459.453125 L 542.46875 -102.28125 C 551.75 -91.925781 561.117188 -83.710938 570.578125 -77.640625 C 580.035156 -71.578125 589.226562 -68.546875 598.15625 -68.546875 C 601.007812 -68.546875 602.4375 -67.832031 602.4375 -66.40625 C 602.4375 -65.6875 601.988281 -65.054688 601.09375 -64.515625 C 600.207031 -63.984375 599.40625 -63.363281 598.6875 -62.65625 C 581.550781 -52.65625 565.128906 -42.210938 549.421875 -31.328125 C 533.710938 -20.441406 519.253906 -11.160156 506.046875 -3.484375 C 492.835938 4.191406 481.054688 8.03125 470.703125 8.03125 C 457.847656 8.03125 444.992188 1.425781 432.140625 -11.78125 C 419.296875 -24.988281 406.445312 -42.75 393.59375 -65.0625 C 380.738281 -87.375 367.617188 -112.628906 354.234375 -140.828125 C 340.847656 -169.035156 327.457031 -198.3125 314.0625 -228.65625 C 300.675781 -259 287.109375 -288.71875 273.359375 -317.8125 C 259.617188 -346.914062 245.695312 -373.515625 231.59375 -397.609375 C 217.5 -421.703125 203.3125 -441.425781 189.03125 -456.78125 L 189.03125 -416.078125 C 189.03125 -381.453125 192.15625 -351.460938 198.40625 -326.109375 C 204.65625 -300.765625 212.6875 -278.539062 222.5 -259.4375 C 232.3125 -240.34375 242.75 -223.207031 253.8125 -208.03125 C 264.882812 -192.863281 275.328125 -178.226562 285.140625 -164.125 C 294.960938 -150.03125 303 -135.21875 309.25 -119.6875 C 315.5 -104.15625 318.625 -86.394531 318.625 -66.40625 C 318.625 -44.625 312.375 -28.109375 299.875 -16.859375 C 287.382812 -5.617188 271.144531 0 251.15625 0 L 147.265625 0 L 147.265625 -2.671875 C 155.828125 -5.535156 163.320312 -13.035156 169.75 -25.171875 C 176.175781 -37.304688 179.390625 -54.265625 179.390625 -76.046875 L 179.390625 -466.421875 C 163.679688 -480.347656 148.6875 -487.3125 134.40625 -487.3125 C 123.695312 -487.3125 113.429688 -484.988281 103.609375 -480.34375 C 93.796875 -475.695312 85.675781 -469.269531 79.25 -461.0625 C 72.820312 -452.851562 69.609375 -443.21875 69.609375 -432.15625 C 69.609375 -422.15625 72.375 -412.691406 77.90625 -403.765625 C 83.445312 -394.835938 90.585938 -386.984375 99.328125 -380.203125 C 108.078125 -373.421875 117.269531 -368.066406 126.90625 -364.140625 C 136.550781 -360.210938 145.300781 -358.25 153.15625 -358.25 C 156.007812 -348.613281 156.273438 -337.8125 153.953125 -325.84375 C 151.628906 -313.882812 147.789062 -301.925781 142.4375 -289.96875 C 137.082031 -278.007812 131.015625 -267.03125 124.234375 -257.03125 C 117.453125 -247.039062 110.757812 -239.007812 104.15625 -232.9375 C 97.550781 -226.875 92.109375 -223.84375 87.828125 -223.84375 C 68.898438 -223.84375 53.273438 -229.015625 40.953125 -239.359375 C 28.640625 -249.710938 19.628906 -263.097656 13.921875 -279.515625 C 8.210938 -295.941406 5.359375 -312.90625 5.359375 -330.40625 Z M 5.359375 -330.40625 "/></g></g></g></svg>