<svg xmlns="http://www.w3.org/2000/svg" xmlns:xlink="http://www.w3.org/1999/xlink" width="2000" zoomAndPan="magnify" viewBox="0 0 1500 1499.999933" height="2000" preserveAspectRatio="xMidYMid meet" version="1.0"><defs><g/><clipPath id="3093aaa5ef"><rect x="0" width="977" y="0" height="1011"/></clipPath><clipPath id="0c5544a63e"><rect x="0" width="791" y="0" height="1011"/></clipPath></defs><g transform="matrix(1, 0, 0, 1, 406, 204)"><g clip-path="url(#3093aaa5ef)"><g fill="#2563eb" fill-opacity="1"><g transform="translate(0.843328, 658.628717)"><g><path d="M 534.8125 94.328125 C 539.375 79.117188 542.414062 66.441406 543.9375 56.296875 C 545.457031 46.148438 546.21875 34.234375 546.21875 20.546875 C 546.21875 8.878906 545.835938 -1.769531 545.078125 -11.40625 C 544.316406 -21.039062 542.796875 -31.4375 540.515625 -42.59375 C 538.234375 -53.757812 535.0625 -66.566406 531 -81.015625 C 526.945312 -95.472656 521.625 -113.601562 515.03125 -135.40625 C 512.488281 -143.519531 509.820312 -152.773438 507.03125 -163.171875 C 504.25 -173.578125 500.828125 -187.398438 496.765625 -204.640625 C 493.722656 -197.035156 491.1875 -190.1875 489.15625 -184.09375 C 487.132812 -178.007812 484.976562 -171.796875 482.6875 -165.453125 C 480.40625 -159.117188 478 -151.894531 475.46875 -143.78125 C 472.9375 -135.664062 469.894531 -125.773438 466.34375 -114.109375 C 458.226562 -89.253906 450.875 -67.695312 444.28125 -49.4375 C 437.6875 -31.1875 430.960938 -15.210938 424.109375 -1.515625 C 417.265625 12.171875 410.289062 24.335938 403.1875 34.984375 C 396.09375 45.640625 387.984375 55.785156 378.859375 65.421875 C 356.035156 90.273438 328.394531 109.675781 295.9375 123.625 C 263.476562 137.570312 228.988281 144.546875 192.46875 144.546875 C 165.59375 144.546875 141.375 140.992188 119.8125 133.890625 C 98.257812 126.785156 79.875 116.515625 64.65625 103.078125 C 49.445312 89.640625 37.65625 73.535156 29.28125 54.765625 C 20.914062 36.003906 16.734375 15.210938 16.734375 -7.609375 C 16.734375 -37.523438 22.691406 -63.515625 34.609375 -85.578125 C 46.523438 -107.640625 65.164062 -127.546875 90.53125 -145.296875 C 109.800781 -158.992188 130.59375 -169.519531 152.90625 -176.875 C 175.226562 -184.226562 197.546875 -187.90625 219.859375 -187.90625 C 232.535156 -187.90625 243.3125 -185.75 252.1875 -181.4375 C 261.0625 -177.125 265.5 -171.925781 265.5 -165.84375 C 265.5 -164.320312 265.367188 -163.050781 265.109375 -162.03125 C 264.859375 -161.019531 264.226562 -159.753906 263.21875 -158.234375 C 262.207031 -156.710938 260.554688 -154.554688 258.265625 -151.765625 C 255.984375 -148.972656 252.5625 -145.046875 248 -139.984375 C 243.945312 -134.398438 241.921875 -127.296875 241.921875 -118.671875 C 241.921875 -107.015625 246.609375 -97.125 255.984375 -89 C 265.367188 -80.882812 277.164062 -76.828125 291.375 -76.828125 C 302.53125 -76.828125 312.796875 -78.851562 322.171875 -82.90625 C 331.554688 -86.96875 340.554688 -93.691406 349.171875 -103.078125 C 357.796875 -112.460938 366.546875 -124.757812 375.421875 -139.96875 C 384.304688 -155.1875 393.566406 -173.957031 403.203125 -196.28125 C 419.429688 -234.3125 433.375 -265.242188 445.03125 -289.078125 C 456.695312 -312.921875 465.066406 -327.628906 470.140625 -333.203125 C 455.429688 -339.296875 443.640625 -343.484375 434.765625 -345.765625 C 425.890625 -348.046875 417.140625 -349.1875 408.515625 -349.1875 C 394.828125 -349.1875 383.414062 -346.140625 374.28125 -340.046875 C 365.15625 -333.960938 360.59375 -326.613281 360.59375 -318 C 360.59375 -313.425781 362.238281 -309.109375 365.53125 -305.046875 C 368.832031 -300.992188 372.257812 -298.96875 375.8125 -298.96875 L 391.03125 -299.734375 C 394.070312 -299.734375 396.734375 -298.460938 399.015625 -295.921875 C 401.296875 -293.390625 402.4375 -290.347656 402.4375 -286.796875 C 402.4375 -275.140625 391.023438 -260.6875 368.203125 -243.4375 C 337.773438 -220.613281 305.316406 -209.203125 270.828125 -209.203125 C 254.085938 -209.203125 238.742188 -211.738281 224.796875 -216.8125 C 210.847656 -221.882812 198.929688 -228.984375 189.046875 -238.109375 C 179.160156 -247.242188 171.550781 -258.273438 166.21875 -271.203125 C 160.894531 -284.140625 158.234375 -298.46875 158.234375 -314.1875 C 158.234375 -334.976562 162.671875 -354.375 171.546875 -372.375 C 180.421875 -390.382812 192.59375 -406.109375 208.0625 -419.546875 C 223.53125 -432.992188 241.785156 -443.519531 262.828125 -451.125 C 283.878906 -458.726562 306.578125 -462.53125 330.921875 -462.53125 C 340.054688 -462.53125 348.300781 -462.148438 355.65625 -461.390625 C 363.007812 -460.628906 370.867188 -459.234375 379.234375 -457.203125 C 387.597656 -455.179688 397.101562 -452.265625 407.75 -448.453125 C 418.40625 -444.648438 431.34375 -439.707031 446.5625 -433.625 C 467.863281 -425 485.234375 -418.785156 498.671875 -414.984375 C 512.109375 -411.179688 522.378906 -409.28125 529.484375 -409.28125 L 567.515625 -410.046875 C 574.109375 -410.046875 579.941406 -408.015625 585.015625 -403.953125 C 590.085938 -399.898438 592.625 -395.082031 592.625 -389.5 C 592.625 -382.40625 590.847656 -374.546875 587.296875 -365.921875 C 581.722656 -352.222656 577.921875 -340.175781 575.890625 -329.78125 C 573.859375 -319.382812 572.84375 -309.113281 572.84375 -298.96875 C 572.84375 -292.375 573.09375 -286.539062 573.59375 -281.46875 C 574.101562 -276.40625 575.242188 -270.320312 577.015625 -263.21875 C 578.796875 -256.113281 581.332031 -247.238281 584.625 -236.59375 C 587.925781 -225.945312 592.617188 -212.253906 598.703125 -195.515625 L 603.28125 -179.53125 C 610.375 -200.332031 617.34375 -219.351562 624.1875 -236.59375 C 631.039062 -253.832031 638.015625 -270.0625 645.109375 -285.28125 C 652.210938 -300.5 659.566406 -314.695312 667.171875 -327.875 C 674.785156 -341.0625 682.898438 -354.25 691.515625 -367.4375 C 718.910156 -408.519531 750.226562 -440.976562 785.46875 -464.8125 C 820.71875 -488.65625 855.585938 -500.578125 890.078125 -500.578125 C 912.898438 -500.578125 931.789062 -494.867188 946.75 -483.453125 C 961.71875 -472.046875 969.203125 -457.71875 969.203125 -440.46875 C 969.203125 -425.257812 963.617188 -412.070312 952.453125 -400.90625 C 941.296875 -389.75 928.113281 -384.171875 912.90625 -384.171875 C 909.851562 -384.171875 907.1875 -384.296875 904.90625 -384.546875 C 902.625 -384.804688 900.085938 -385.316406 897.296875 -386.078125 C 894.515625 -386.835938 890.96875 -388.234375 886.65625 -390.265625 C 882.34375 -392.296875 876.128906 -395.085938 868.015625 -398.640625 C 863.960938 -400.660156 857.875 -401.671875 849.75 -401.671875 C 837.582031 -401.671875 826.046875 -398.375 815.140625 -391.78125 C 804.234375 -385.1875 792.191406 -374.535156 779.015625 -359.828125 C 737.929688 -313.679688 706.234375 -260.429688 683.921875 -200.078125 C 677.828125 -183.847656 672.367188 -166.726562 667.546875 -148.71875 C 662.734375 -130.71875 658.675781 -112.710938 655.375 -94.703125 C 652.082031 -76.703125 649.421875 -59.207031 647.390625 -42.21875 C 645.367188 -25.226562 644.359375 -9.632812 644.359375 4.5625 L 644.359375 28.140625 Z M 534.8125 94.328125 "/></g></g></g></g></g><g transform="matrix(1, 0, 0, 1, 129, 204)"><g clip-path="url(#0c5544a63e)"><g fill="#ffffff" fill-opacity="1"><g transform="translate(21.00002, 658.628717)"><g><path d="M 489.644531 -499.242188 C 514.042969 -533.398438 542.738281 -560.566406 575.734375 -580.746094 C 609.613281 -601.46875 644.152344 -611.828125 679.34375 -611.828125 C 702.824219 -611.828125 722.242188 -606.433594 737.605469 -595.648438 C 755.1875 -583.304688 763.976562 -566.828125 763.976562 -546.214844 C 763.976562 -536.148438 761.351562 -526.429688 756.105469 -517.058594 C 751.410156 -508.675781 745.390625 -501.3125 738.039062 -494.964844 C 730.902344 -488.796875 722.832031 -483.789062 713.835938 -479.933594 C 704.222656 -475.8125 694.25 -473.753906 683.90625 -473.753906 C 671.746094 -473.753906 662.632812 -476.449219 656.566406 -481.839844 C 650.207031 -487.492188 646.59375 -496.84375 645.726562 -509.890625 L 645.679688 -510.554688 L 645.679688 -511.21875 C 645.679688 -507.867188 646.636719 -504.976562 648.550781 -502.554688 C 648.960938 -502.03125 649.363281 -501.609375 649.757812 -501.285156 L 649.671875 -501.324219 C 649.027344 -501.707031 648.015625 -501.898438 646.632812 -501.898438 C 629.664062 -501.898438 612.527344 -491.1875 595.222656 -469.761719 L 579.6875 -482.3125 L 582.578125 -502.070312 C 627.832031 -495.449219 663.300781 -481.578125 688.984375 -460.460938 C 716.664062 -437.699219 730.503906 -408.976562 730.503906 -374.285156 C 730.503906 -351.292969 724.46875 -329.839844 712.398438 -309.921875 C 700.433594 -290.179688 684.292969 -274.632812 663.980469 -263.28125 C 652.359375 -256.890625 641.085938 -252.21875 630.160156 -249.265625 C 619.644531 -246.421875 605.179688 -244.1875 586.765625 -242.5625 L 585.011719 -262.457031 L 586.820312 -282.34375 C 600.480469 -281.101562 612.234375 -278.019531 622.089844 -273.089844 C 633.324219 -267.472656 642.097656 -259.09375 648.410156 -247.957031 C 654.023438 -238.054688 657.75 -225.710938 659.601562 -210.921875 C 661.25 -197.738281 661.804688 -181.757812 661.269531 -162.988281 L 641.304688 -163.558594 L 661.277344 -163.558594 C 661.277344 -161.503906 661.425781 -160.253906 661.726562 -159.800781 C 661.265625 -160.492188 660.511719 -161.136719 659.464844 -161.742188 C 658.023438 -162.574219 656.535156 -162.988281 655 -162.988281 C 654.308594 -162.988281 653.714844 -162.953125 653.222656 -162.882812 C 653.300781 -162.894531 653.472656 -162.925781 653.746094 -162.980469 C 654.703125 -163.171875 656.042969 -163.484375 657.765625 -163.914062 L 658.226562 -164.03125 L 658.691406 -164.121094 C 665.054688 -165.394531 669.402344 -166.03125 671.734375 -166.03125 C 681.839844 -166.03125 690.160156 -161.785156 696.695312 -153.292969 C 701.988281 -146.40625 704.636719 -138.671875 704.636719 -130.085938 C 704.636719 -121.003906 701.777344 -109.085938 696.0625 -94.339844 C 690.859375 -80.929688 684.445312 -67.683594 676.8125 -54.601562 C 662.488281 -30.535156 643.882812 -11.066406 621 3.8125 C 597.402344 19.148438 573.488281 26.816406 549.257812 26.816406 C 527.164062 26.816406 508.683594 18.695312 493.824219 2.449219 C 479.429688 -13.285156 472.230469 -32.613281 472.230469 -55.535156 C 472.230469 -75.835938 477.984375 -110.574219 489.492188 -159.742188 L 489.601562 -160.214844 L 489.734375 -160.675781 C 491.523438 -166.9375 492.859375 -173.058594 493.746094 -179.039062 C 494.617188 -184.914062 495.054688 -189.390625 495.054688 -192.46875 C 495.054688 -198.242188 493.839844 -202.5625 491.410156 -205.433594 C 489.820312 -207.3125 487.546875 -208.253906 484.59375 -208.253906 C 481.855469 -208.253906 479.863281 -208.128906 478.621094 -207.878906 L 474.703125 -227.460938 L 493.246094 -220.046875 C 492.195312 -217.421875 491.019531 -214.542969 489.714844 -211.414062 C 488.632812 -208.820312 487.664062 -206.230469 486.800781 -203.648438 C 482.832031 -191.238281 478.960938 -178.75 475.191406 -166.191406 C 471.355469 -153.394531 467.386719 -140.597656 463.292969 -127.804688 C 451.65625 -90.246094 436.371094 -56.402344 417.441406 -26.273438 C 398.324219 4.15625 376.167969 29.929688 350.984375 51.054688 C 325.652344 72.300781 297.722656 88.648438 267.1875 100.097656 C 236.523438 111.597656 204.265625 117.34375 170.40625 117.34375 C 144.109375 117.34375 119.542969 112.972656 96.703125 104.234375 C 73.855469 95.488281 53.902344 83.441406 36.851562 68.09375 C 19.589844 52.5625 6.078125 34.164062 -3.691406 12.902344 C -13.53125 -8.507812 -18.449219 -31.574219 -18.449219 -56.296875 C -18.449219 -82.765625 -12.421875 -108.058594 -0.363281 -132.171875 C 11.457031 -155.8125 27.480469 -176.484375 47.710938 -194.183594 C 67.726562 -211.699219 90.867188 -225.570312 117.132812 -235.800781 C 143.554688 -246.089844 171.203125 -251.234375 200.074219 -251.234375 C 218.175781 -251.234375 232.71875 -248.738281 243.714844 -243.738281 C 250.925781 -240.460938 256.589844 -236.140625 260.707031 -230.777344 C 265.550781 -224.464844 267.972656 -217.273438 267.972656 -209.203125 C 267.972656 -202.203125 266.5 -196.054688 263.558594 -190.757812 C 261.816406 -187.625 257.355469 -181.363281 250.171875 -171.96875 L 234.308594 -184.101562 L 251.242188 -173.515625 C 250.730469 -172.695312 250.476562 -170.644531 250.476562 -167.363281 C 250.476562 -162.949219 251.882812 -159.566406 254.699219 -157.21875 C 258.605469 -153.964844 264.234375 -152.339844 271.585938 -152.339844 C 291.519531 -152.339844 310.917969 -162.8125 329.773438 -183.765625 C 334.820312 -189.269531 339.367188 -194.945312 343.414062 -200.792969 C 347.527344 -206.734375 351.679688 -213.667969 355.875 -221.589844 C 360.175781 -229.714844 364.753906 -239.476562 369.605469 -250.875 C 374.644531 -262.722656 380.699219 -277.230469 387.769531 -294.402344 C 392.871094 -307.15625 397.238281 -317.683594 400.875 -325.996094 C 404.460938 -334.195312 408.175781 -342.523438 412.019531 -350.976562 C 415.875 -359.453125 420.359375 -369.070312 425.484375 -379.828125 L 445.238281 -421.617188 L 463.292969 -413.082031 L 466.449219 -393.363281 C 455.207031 -391.566406 444.808594 -388.777344 435.261719 -385.003906 C 425.671875 -381.210938 417.277344 -376.917969 410.085938 -372.125 C 403.6875 -367.855469 398.777344 -363.382812 395.355469 -358.699219 C 393.101562 -355.617188 391.972656 -352.949219 391.972656 -350.703125 C 391.972656 -351.242188 391.640625 -351.855469 390.972656 -352.550781 C 391.359375 -352.148438 392.738281 -351.648438 395.105469 -351.058594 C 402.921875 -349.21875 409.246094 -345.882812 414.082031 -341.050781 C 420.136719 -334.996094 423.164062 -327.5625 423.164062 -318.75 C 423.164062 -311.9375 420.886719 -304.167969 416.335938 -295.441406 C 412.75 -288.574219 408.070312 -281.382812 402.285156 -273.863281 L 386.457031 -286.039062 L 402.671875 -274.382812 C 389.027344 -255.398438 370.910156 -240.476562 348.320312 -229.621094 C 326.0625 -218.925781 303.273438 -213.578125 279.953125 -213.578125 C 265.1875 -213.578125 251.28125 -216.21875 238.226562 -221.503906 C 225.382812 -226.703125 214.03125 -233.773438 204.164062 -242.714844 C 194.039062 -251.890625 186.125 -262.65625 180.421875 -275.007812 C 174.632812 -287.554688 171.738281 -300.867188 171.738281 -314.949219 C 171.738281 -331.292969 175.035156 -347.414062 181.632812 -363.304688 C 187.957031 -378.546875 196.8125 -393.136719 208.1875 -407.074219 C 219.480469 -420.902344 233.21875 -433.542969 249.40625 -444.984375 C 265.261719 -456.195312 282.714844 -465.878906 301.757812 -474.039062 C 326.984375 -484.773438 355.539062 -493.066406 387.421875 -498.910156 C 419.039062 -504.707031 452.445312 -507.605469 487.636719 -507.605469 L 505.894531 -507.605469 L 505.894531 -487.636719 Z M 516.171875 -467.667969 L 487.636719 -467.667969 C 454.867188 -467.667969 423.863281 -464.988281 394.621094 -459.625 C 365.644531 -454.3125 339.933594 -446.882812 317.488281 -437.328125 C 301.03125 -430.277344 286.023438 -421.957031 272.460938 -412.371094 C 259.234375 -403.023438 248.125 -392.835938 239.128906 -381.816406 C 230.21875 -370.902344 223.351562 -359.628906 218.519531 -347.992188 C 213.957031 -337.003906 211.675781 -325.988281 211.675781 -314.949219 C 211.675781 -306.714844 213.347656 -298.980469 216.6875 -291.746094 C 220.113281 -284.320312 224.878906 -277.839844 230.984375 -272.308594 C 237.34375 -266.542969 244.753906 -261.949219 253.210938 -258.523438 C 261.460938 -255.1875 270.375 -253.519531 279.953125 -253.519531 C 297.207031 -253.519531 314.230469 -257.550781 331.023438 -265.621094 C 347.488281 -273.53125 360.558594 -284.222656 370.242188 -297.695312 L 370.429688 -297.957031 L 370.628906 -298.214844 C 374.988281 -303.882812 378.421875 -309.117188 380.925781 -313.914062 C 381.929688 -315.839844 382.640625 -317.445312 383.058594 -318.730469 L 383.222656 -318.75 C 383.222656 -316.535156 384.097656 -314.550781 385.839844 -312.808594 C 386.328125 -312.320312 386.757812 -311.984375 387.128906 -311.804688 C 386.863281 -311.933594 386.289062 -312.105469 385.417969 -312.308594 C 375.613281 -314.761719 367.859375 -318.957031 362.160156 -324.890625 C 355.410156 -331.925781 352.035156 -340.527344 352.035156 -350.703125 C 352.035156 -361.640625 355.726562 -372.164062 363.105469 -382.265625 C 369.320312 -390.765625 377.597656 -398.464844 387.933594 -405.355469 C 397.476562 -411.71875 408.359375 -417.316406 420.574219 -422.144531 C 432.832031 -426.992188 446.019531 -430.542969 460.136719 -432.800781 L 497.53125 -438.785156 L 461.542969 -362.65625 C 456.523438 -352.113281 452.132812 -342.710938 448.378906 -334.453125 C 444.617188 -326.171875 440.976562 -318.015625 437.464844 -309.988281 C 434 -302.066406 429.746094 -291.804688 424.703125 -279.195312 C 417.574219 -261.882812 411.457031 -247.230469 406.355469 -235.238281 C 401.0625 -222.800781 396 -212.023438 391.171875 -202.902344 C 386.238281 -193.582031 381.265625 -185.300781 376.25 -178.058594 C 371.167969 -170.71875 365.570312 -163.714844 359.460938 -157.046875 C 332.671875 -127.28125 303.378906 -112.398438 271.585938 -112.398438 C 254.59375 -112.398438 240.441406 -117.113281 229.132812 -126.539062 C 216.734375 -136.867188 210.535156 -150.476562 210.535156 -167.363281 C 210.535156 -178.28125 212.816406 -187.386719 217.375 -194.683594 L 217.875 -195.480469 L 218.445312 -196.230469 C 224.449219 -204.078125 227.847656 -208.722656 228.644531 -210.152344 C 228.324219 -209.578125 228.113281 -209.058594 228.011719 -208.597656 C 228.027344 -208.65625 228.03125 -208.859375 228.03125 -209.203125 C 228.03125 -208.234375 228.363281 -207.320312 229.023438 -206.460938 L 229.089844 -206.324219 C 228.644531 -206.65625 228.007812 -207.007812 227.1875 -207.378906 C 221.445312 -209.992188 212.40625 -211.296875 200.074219 -211.296875 C 176.203125 -211.296875 153.386719 -207.058594 131.628906 -198.585938 C 109.714844 -190.050781 90.507812 -178.5625 74.007812 -164.125 C 57.722656 -149.875 44.839844 -133.269531 35.359375 -114.308594 C 26.113281 -95.820312 21.492188 -76.480469 21.492188 -56.296875 C 21.492188 -37.398438 25.195312 -19.890625 32.601562 -3.773438 C 40.074219 12.492188 50.398438 26.554688 63.566406 38.410156 C 76.945312 50.449219 92.75 59.957031 110.980469 66.933594 C 129.222656 73.914062 149.03125 77.40625 170.40625 77.40625 C 199.4375 77.40625 227.023438 72.503906 253.164062 62.703125 C 279.429688 52.851562 303.480469 38.769531 325.316406 20.453125 C 347.296875 2.019531 366.730469 -20.636719 383.621094 -47.519531 C 400.699219 -74.699219 414.574219 -105.515625 425.253906 -139.976562 C 429.273438 -152.539062 433.167969 -165.105469 436.9375 -177.667969 C 440.777344 -190.460938 444.769531 -203.332031 448.910156 -216.28125 C 450.082031 -219.785156 451.390625 -223.28125 452.847656 -226.773438 C 454.078125 -229.730469 455.183594 -232.433594 456.164062 -234.878906 L 460.179688 -244.921875 L 470.789062 -247.042969 C 474.617188 -247.808594 479.21875 -248.191406 484.59375 -248.191406 C 499.898438 -248.191406 512.332031 -242.539062 521.898438 -231.234375 C 530.628906 -220.917969 534.992188 -207.996094 534.992188 -192.46875 C 534.992188 -187.429688 534.414062 -181.003906 533.253906 -173.183594 C 532.113281 -165.472656 530.40625 -157.648438 528.136719 -149.707031 L 508.9375 -155.191406 L 528.382812 -150.640625 C 517.574219 -104.464844 512.171875 -72.761719 512.171875 -55.535156 C 512.171875 -42.953125 515.878906 -32.613281 523.289062 -24.511719 C 530.234375 -16.917969 538.890625 -13.121094 549.257812 -13.121094 C 565.597656 -13.121094 582.253906 -18.640625 599.234375 -29.675781 C 616.921875 -41.171875 631.28125 -56.1875 642.316406 -74.726562 C 648.882812 -85.984375 654.386719 -97.335938 658.824219 -108.777344 C 662.742188 -118.882812 664.699219 -125.984375 664.699219 -130.085938 C 664.699219 -129.617188 664.8125 -129.234375 665.035156 -128.941406 C 666.496094 -127.042969 668.730469 -126.09375 671.734375 -126.09375 C 672.3125 -126.09375 672.757812 -126.113281 673.070312 -126.152344 C 672.835938 -126.121094 672.46875 -126.066406 671.976562 -125.984375 C 670.667969 -125.765625 668.847656 -125.425781 666.523438 -124.960938 L 662.605469 -144.542969 L 667.449219 -125.167969 C 661.804688 -123.757812 657.652344 -123.050781 655 -123.050781 C 643.816406 -123.050781 634.980469 -127.917969 628.496094 -137.648438 C 623.722656 -144.804688 621.335938 -153.441406 621.335938 -163.558594 L 621.335938 -163.84375 L 621.34375 -164.128906 C 621.824219 -180.859375 621.363281 -194.808594 619.96875 -205.964844 C 618.773438 -215.519531 616.671875 -222.953125 613.664062 -228.265625 C 611.351562 -232.34375 608.207031 -235.378906 604.226562 -237.367188 C 598.867188 -240.046875 591.859375 -241.78125 583.203125 -242.570312 L 583.257812 -282.347656 C 599.328125 -283.765625 611.492188 -285.589844 619.738281 -287.820312 C 627.582031 -289.9375 635.832031 -293.382812 644.496094 -298.148438 C 658.671875 -306.066406 669.921875 -316.894531 678.242188 -330.625 C 686.457031 -344.179688 690.5625 -358.734375 690.5625 -374.285156 C 690.5625 -396.398438 681.582031 -414.839844 663.617188 -429.609375 C 643.65625 -446.023438 614.714844 -457.003906 576.792969 -462.550781 L 542.152344 -467.621094 L 564.152344 -494.859375 C 589.449219 -526.179688 616.941406 -541.839844 646.632812 -541.839844 C 655.390625 -541.839844 663.253906 -539.75 670.21875 -535.570312 C 680.484375 -529.410156 685.621094 -521.292969 685.621094 -511.21875 L 665.648438 -511.21875 L 685.574219 -512.546875 C 685.734375 -510.179688 685.960938 -508.480469 686.257812 -507.453125 C 685.886719 -508.738281 684.835938 -510.148438 683.101562 -511.691406 C 681.628906 -513 680.355469 -513.769531 679.285156 -514 C 680.238281 -513.796875 681.78125 -513.691406 683.90625 -513.691406 C 688.78125 -513.691406 693.515625 -514.675781 698.101562 -516.640625 C 703.308594 -518.871094 707.917969 -521.722656 711.933594 -525.191406 C 715.742188 -528.480469 718.851562 -532.273438 721.257812 -536.570312 C 723.109375 -539.878906 724.035156 -543.09375 724.035156 -546.214844 C 724.035156 -552.988281 720.910156 -558.570312 714.652344 -562.960938 C 706.179688 -568.914062 694.410156 -571.886719 679.34375 -571.886719 C 651.648438 -571.886719 624.058594 -563.484375 596.570312 -546.675781 C 568.199219 -529.324219 543.390625 -505.773438 522.144531 -476.027344 Z M 493.878906 -315.785156 C 507.058594 -317.195312 516.957031 -318.785156 523.570312 -320.550781 C 529.292969 -322.074219 534.621094 -324.355469 539.550781 -327.390625 L 550.015625 -310.382812 L 538.324219 -326.570312 C 544.945312 -331.355469 550.703125 -338.339844 555.589844 -347.527344 C 560.371094 -356.515625 562.757812 -364.925781 562.757812 -372.765625 C 562.757812 -379.492188 561.117188 -384.523438 557.832031 -387.867188 C 553.800781 -391.972656 546.839844 -394.820312 536.957031 -396.410156 L 540.128906 -416.125 L 557.988281 -407.195312 C 553.628906 -398.476562 550.269531 -391.285156 547.910156 -385.625 C 545.445312 -379.707031 542.976562 -373.539062 540.507812 -367.117188 C 538.0625 -360.753906 535.355469 -353.25 532.390625 -344.605469 C 529.433594 -335.976562 525.707031 -324.175781 521.21875 -309.210938 L 521.132812 -308.917969 L 517.992188 -299.503906 C 517.070312 -296.734375 516.140625 -293.714844 515.207031 -290.441406 L 496.003906 -295.929688 Z M 498.132812 -276.074219 L 468.660156 -272.914062 L 476.804688 -301.414062 C 477.898438 -305.242188 478.996094 -308.816406 480.101562 -312.132812 L 483.144531 -321.261719 L 502.089844 -314.949219 L 482.964844 -320.6875 C 487.601562 -336.148438 491.484375 -348.441406 494.609375 -357.558594 C 497.734375 -366.667969 500.605469 -374.632812 503.230469 -381.453125 C 505.832031 -388.21875 508.4375 -394.730469 511.042969 -400.984375 C 513.753906 -407.492188 517.496094 -415.519531 522.265625 -425.058594 L 528.820312 -438.167969 L 543.296875 -435.84375 C 561.816406 -432.867188 576.15625 -426.203125 586.324219 -415.859375 C 597.242188 -404.746094 602.699219 -390.382812 602.699219 -372.765625 C 602.699219 -358.285156 598.75 -343.621094 590.851562 -328.773438 C 583.058594 -314.125 573.34375 -302.597656 561.710938 -294.195312 L 561.113281 -293.761719 L 560.484375 -293.375 C 552.226562 -288.296875 543.355469 -284.492188 533.863281 -281.957031 C 525.261719 -279.664062 513.351562 -277.703125 498.132812 -276.074219 Z M 498.132812 -276.074219 "/></g></g></g><g fill="#2563eb" fill-opacity="1"><g transform="translate(21.00002, 658.628717)"><g><path d="M 505.90625 -487.640625 C 528.71875 -519.585938 555.46875 -544.941406 586.15625 -563.703125 C 616.84375 -582.472656 647.90625 -591.859375 679.34375 -591.859375 C 698.625 -591.859375 714.222656 -587.675781 726.140625 -579.3125 C 738.054688 -570.945312 744.015625 -559.914062 744.015625 -546.21875 C 744.015625 -539.625 742.238281 -533.15625 738.6875 -526.8125 C 735.132812 -520.476562 730.566406 -514.898438 724.984375 -510.078125 C 719.410156 -505.265625 713.070312 -501.335938 705.96875 -498.296875 C 698.875 -495.253906 691.523438 -493.734375 683.921875 -493.734375 C 676.816406 -493.734375 672.125 -494.742188 669.84375 -496.765625 C 667.5625 -498.796875 666.164062 -503.613281 665.65625 -511.21875 C 665.65625 -513.757812 663.753906 -516.171875 659.953125 -518.453125 C 656.148438 -520.734375 651.710938 -521.875 646.640625 -521.875 C 623.304688 -521.875 600.988281 -508.6875 579.6875 -482.3125 C 621.28125 -476.226562 653.488281 -463.800781 676.3125 -445.03125 C 699.132812 -426.269531 710.546875 -402.6875 710.546875 -374.28125 C 710.546875 -355.007812 705.472656 -337.003906 695.328125 -320.265625 C 685.179688 -303.535156 671.488281 -290.351562 654.25 -280.71875 C 644.101562 -275.132812 634.335938 -271.070312 624.953125 -268.53125 C 615.566406 -266 602.253906 -263.972656 585.015625 -262.453125 C 596.171875 -261.441406 605.550781 -259.035156 613.15625 -255.234375 C 620.769531 -251.429688 626.734375 -245.722656 631.046875 -238.109375 C 635.359375 -230.503906 638.273438 -220.613281 639.796875 -208.4375 C 641.316406 -196.269531 641.820312 -181.3125 641.3125 -163.5625 C 641.3125 -157.476562 642.578125 -152.53125 645.109375 -148.71875 C 647.648438 -144.914062 650.945312 -143.015625 655 -143.015625 C 656.019531 -143.015625 658.554688 -143.523438 662.609375 -144.546875 C 667.679688 -145.554688 670.726562 -146.0625 671.75 -146.0625 C 675.289062 -146.0625 678.328125 -144.410156 680.859375 -141.109375 C 683.398438 -137.816406 684.671875 -134.144531 684.671875 -130.09375 C 684.671875 -123.5 682.257812 -113.988281 677.4375 -101.5625 C 672.625 -89.132812 666.664062 -76.832031 659.5625 -64.65625 C 646.882812 -43.363281 630.398438 -26.125 610.109375 -12.9375 C 589.828125 0.246094 569.546875 6.84375 549.265625 6.84375 C 533.035156 6.84375 519.46875 0.882812 508.5625 -11.03125 C 497.65625 -22.945312 492.203125 -37.78125 492.203125 -55.53125 C 492.203125 -74.300781 497.78125 -107.519531 508.9375 -155.1875 C 510.96875 -162.289062 512.488281 -169.265625 513.5 -176.109375 C 514.519531 -182.960938 515.03125 -188.414062 515.03125 -192.46875 C 515.03125 -203.125 512.238281 -211.742188 506.65625 -218.328125 C 501.082031 -224.921875 493.726562 -228.21875 484.59375 -228.21875 C 480.539062 -228.21875 477.242188 -227.96875 474.703125 -227.46875 C 473.691406 -224.925781 472.550781 -222.132812 471.28125 -219.09375 C 470.007812 -216.050781 468.867188 -213.007812 467.859375 -209.96875 C 463.804688 -197.289062 459.875 -184.609375 456.0625 -171.921875 C 452.257812 -159.242188 448.332031 -146.566406 444.28125 -133.890625 C 433.125 -97.878906 418.539062 -65.546875 400.53125 -36.890625 C 382.53125 -8.234375 361.738281 15.976562 338.15625 35.75 C 314.570312 55.53125 288.578125 70.742188 260.171875 81.390625 C 231.773438 92.046875 201.851562 97.375 170.40625 97.375 C 146.570312 97.375 124.382812 93.441406 103.84375 85.578125 C 83.300781 77.722656 65.421875 66.945312 50.203125 53.25 C 34.992188 39.5625 23.078125 23.332031 14.453125 4.5625 C 5.828125 -14.195312 1.515625 -34.484375 1.515625 -56.296875 C 1.515625 -79.628906 6.835938 -101.941406 17.484375 -123.234375 C 28.140625 -144.535156 42.597656 -163.175781 60.859375 -179.15625 C 79.117188 -195.132812 100.289062 -207.8125 124.375 -217.1875 C 148.46875 -226.570312 173.703125 -231.265625 200.078125 -231.265625 C 215.296875 -231.265625 227.085938 -229.363281 235.453125 -225.5625 C 243.816406 -221.757812 248 -216.304688 248 -209.203125 C 248 -205.648438 247.363281 -202.734375 246.09375 -200.453125 C 244.832031 -198.171875 240.90625 -192.71875 234.3125 -184.09375 C 231.769531 -180.039062 230.5 -174.460938 230.5 -167.359375 C 230.5 -156.710938 234.300781 -148.21875 241.90625 -141.875 C 249.519531 -135.539062 259.414062 -132.375 271.59375 -132.375 C 297.457031 -132.375 321.800781 -145.050781 344.625 -170.40625 C 350.195312 -176.488281 355.265625 -182.828125 359.828125 -189.421875 C 364.398438 -196.015625 368.96875 -203.625 373.53125 -212.25 C 378.09375 -220.875 382.910156 -231.144531 387.984375 -243.0625 C 393.054688 -254.976562 399.140625 -269.554688 406.234375 -286.796875 C 411.304688 -299.484375 415.617188 -309.882812 419.171875 -318 C 422.722656 -326.113281 426.398438 -334.351562 430.203125 -342.71875 C 434.003906 -351.082031 438.441406 -360.585938 443.515625 -371.234375 C 448.585938 -381.890625 455.179688 -395.84375 463.296875 -413.09375 C 450.617188 -411.0625 438.828125 -407.890625 427.921875 -403.578125 C 417.015625 -399.265625 407.378906 -394.316406 399.015625 -388.734375 C 390.648438 -383.160156 384.054688 -377.078125 379.234375 -370.484375 C 374.410156 -363.890625 372 -357.296875 372 -350.703125 C 372 -341.066406 378.085938 -334.726562 390.265625 -331.6875 C 398.890625 -329.65625 403.203125 -325.34375 403.203125 -318.75 C 403.203125 -315.195312 401.675781 -310.503906 398.625 -304.671875 C 395.582031 -298.847656 391.53125 -292.640625 386.46875 -286.046875 C 374.800781 -269.816406 359.203125 -257.007812 339.671875 -247.625 C 320.148438 -238.238281 300.242188 -233.546875 279.953125 -233.546875 C 267.785156 -233.546875 256.375 -235.703125 245.71875 -240.015625 C 235.070312 -244.328125 225.691406 -250.160156 217.578125 -257.515625 C 209.460938 -264.867188 203.117188 -273.488281 198.546875 -283.375 C 193.984375 -293.269531 191.703125 -303.796875 191.703125 -314.953125 C 191.703125 -328.640625 194.492188 -342.203125 200.078125 -355.640625 C 205.660156 -369.085938 213.519531 -382.023438 223.65625 -394.453125 C 233.800781 -406.878906 246.226562 -418.289062 260.9375 -428.6875 C 275.644531 -439.082031 291.875 -448.082031 309.625 -455.6875 C 333.457031 -465.832031 360.585938 -473.691406 391.015625 -479.265625 C 421.453125 -484.847656 453.660156 -487.640625 487.640625 -487.640625 Z M 496.015625 -295.9375 C 510.210938 -297.457031 521.113281 -299.226562 528.71875 -301.25 C 536.320312 -303.28125 543.421875 -306.328125 550.015625 -310.390625 C 559.148438 -316.984375 566.882812 -326.238281 573.21875 -338.15625 C 579.5625 -350.070312 582.734375 -361.609375 582.734375 -372.765625 C 582.734375 -397.109375 568.53125 -411.5625 540.125 -416.125 C 535.5625 -407 532.007812 -399.390625 529.46875 -393.296875 C 526.9375 -387.210938 524.40625 -380.875 521.875 -374.28125 C 519.34375 -367.695312 516.550781 -359.960938 513.5 -351.078125 C 510.457031 -342.203125 506.65625 -330.160156 502.09375 -314.953125 C 501.082031 -311.910156 500.066406 -308.863281 499.046875 -305.8125 C 498.035156 -302.769531 497.023438 -299.476562 496.015625 -295.9375 Z M 496.015625 -295.9375 "/></g></g></g></g></g><g fill="#2563eb" fill-opacity="1"><g transform="translate(411.620866, 1131.307971)"><g><path d="M 5.875 -80.84375 L 34.796875 -80.84375 C 42.566406 -80.84375 48.898438 -78.769531 53.796875 -74.625 C 58.703125 -70.476562 61.15625 -64.550781 61.15625 -56.84375 C 61.15625 -50.894531 59.664062 -45.910156 56.6875 -41.890625 C 53.71875 -37.878906 49.6875 -35.054688 44.59375 -33.421875 L 72.421875 0 L 49 0 L 24.296875 -31.953125 L 24.296875 0 L 5.875 0 Z M 24.296875 -44.984375 L 26.453125 -44.984375 C 28.160156 -44.984375 29.597656 -45.015625 30.765625 -45.078125 C 31.941406 -45.140625 33.28125 -45.367188 34.78125 -45.765625 C 36.289062 -46.160156 37.5 -46.71875 38.40625 -47.4375 C 39.320312 -48.15625 40.109375 -49.195312 40.765625 -50.5625 C 41.421875 -51.9375 41.75 -53.601562 41.75 -55.5625 C 41.75 -57.519531 41.421875 -59.1875 40.765625 -60.5625 C 40.109375 -61.9375 39.320312 -62.984375 38.40625 -63.703125 C 37.5 -64.421875 36.289062 -64.972656 34.78125 -65.359375 C 33.28125 -65.753906 31.941406 -65.984375 30.765625 -66.046875 C 29.597656 -66.117188 28.160156 -66.15625 26.453125 -66.15625 L 24.296875 -66.15625 Z M 24.296875 -44.984375 "/></g></g></g><g fill="#2563eb" fill-opacity="1"><g transform="translate(528.821208, 1131.307971)"><g><path d="M 2.25 -40.46875 C 2.25 -52.164062 6.234375 -62.0625 14.203125 -70.15625 C 22.179688 -78.257812 31.785156 -82.3125 43.015625 -82.3125 C 54.316406 -82.3125 63.921875 -78.273438 71.828125 -70.203125 C 79.734375 -62.140625 83.6875 -52.226562 83.6875 -40.46875 C 83.6875 -28.644531 79.800781 -18.695312 72.03125 -10.625 C 64.257812 -2.5625 54.585938 1.46875 43.015625 1.46875 C 31.191406 1.46875 21.441406 -2.53125 13.765625 -10.53125 C 6.085938 -18.539062 2.25 -28.519531 2.25 -40.46875 Z M 22.140625 -40.46875 C 22.140625 -36.226562 22.789062 -32.359375 24.09375 -28.859375 C 25.40625 -25.367188 27.695312 -22.410156 30.96875 -19.984375 C 34.238281 -17.566406 38.253906 -16.359375 43.015625 -16.359375 C 49.878906 -16.359375 55.054688 -18.710938 58.546875 -23.421875 C 62.046875 -28.128906 63.796875 -33.8125 63.796875 -40.46875 C 63.796875 -47.070312 62.015625 -52.738281 58.453125 -57.46875 C 54.890625 -62.207031 49.742188 -64.578125 43.015625 -64.578125 C 36.359375 -64.578125 31.210938 -62.207031 27.578125 -57.46875 C 23.953125 -52.738281 22.140625 -47.070312 22.140625 -40.46875 Z M 22.140625 -40.46875 "/></g></g></g><g fill="#2563eb" fill-opacity="1"><g transform="translate(661.798304, 1131.307971)"><g><path d="M 24.296875 -50.171875 L 24.296875 0 L 5.875 0 L 5.875 -80.84375 L 24.296875 -80.84375 L 56.453125 -30.671875 L 56.640625 -30.671875 L 56.640625 -80.84375 L 75.0625 -80.84375 L 75.0625 0 L 56.640625 0 L 24.5 -50.171875 Z M 24.296875 -50.171875 "/></g></g></g><g fill="#2563eb" fill-opacity="1"><g transform="translate(789.777775, 1131.307971)"><g><path d="M 46.9375 -80.84375 L 79.578125 0 L 59.78125 0 L 53.796875 -16.171875 L 23.03125 -16.171875 L 17.046875 0 L -2.75 0 L 29.890625 -80.84375 Z M 47.53125 -32.34375 L 38.515625 -55.859375 L 38.3125 -55.859375 L 29.296875 -32.34375 Z M 47.53125 -32.34375 "/></g></g></g><g fill="#2563eb" fill-opacity="1"><g transform="translate(913.641588, 1131.307971)"><g><path d="M 24.296875 -80.84375 L 24.296875 -16.171875 L 52.140625 -16.171875 L 52.140625 0 L 5.875 0 L 5.875 -80.84375 Z M 24.296875 -80.84375 "/></g></g></g><g fill="#2563eb" fill-opacity="1"><g transform="translate(1016.045098, 1131.307971)"><g><path d="M 5.875 -80.84375 L 29.296875 -80.84375 C 40.535156 -80.84375 50.140625 -77.003906 58.109375 -69.328125 C 66.078125 -61.648438 70.0625 -52.03125 70.0625 -40.46875 C 70.0625 -28.84375 66.09375 -19.191406 58.15625 -11.515625 C 50.21875 -3.835938 40.597656 0 29.296875 0 L 5.875 0 Z M 24.296875 -16.46875 L 27.140625 -16.46875 C 33.867188 -16.46875 39.375 -18.738281 43.65625 -23.28125 C 47.9375 -27.820312 50.109375 -33.519531 50.171875 -40.375 C 50.171875 -47.238281 48.03125 -52.957031 43.75 -57.53125 C 39.476562 -62.101562 33.941406 -64.390625 27.140625 -64.390625 L 24.296875 -64.390625 Z M 24.296875 -16.46875 "/></g></g></g><g fill="#2563eb" fill-opacity="1"><g transform="translate(470.613048, 1254.30796)"><g><path d="M 24.296875 -50.171875 L 24.296875 0 L 5.875 0 L 5.875 -80.84375 L 24.296875 -80.84375 L 56.453125 -30.671875 L 56.640625 -30.671875 L 56.640625 -80.84375 L 75.0625 -80.84375 L 75.0625 0 L 56.640625 0 L 24.5 -50.171875 Z M 24.296875 -50.171875 "/></g></g></g><g fill="#2563eb" fill-opacity="1"><g transform="translate(598.592535, 1254.30796)"><g><path d="M 68.015625 -80.84375 L 68.015625 -28.71875 C 68.015625 -18.78125 65.332031 -11.265625 59.96875 -6.171875 C 54.613281 -1.078125 46.773438 1.46875 36.453125 1.46875 C 26.128906 1.46875 18.289062 -1.078125 12.9375 -6.171875 C 7.582031 -11.265625 4.90625 -18.78125 4.90625 -28.71875 L 4.90625 -80.84375 L 23.328125 -80.84375 L 23.328125 -34.109375 C 23.328125 -27.566406 24.351562 -23.019531 26.40625 -20.46875 C 28.46875 -17.925781 31.816406 -16.65625 36.453125 -16.65625 C 41.085938 -16.65625 44.4375 -17.925781 46.5 -20.46875 C 48.5625 -23.019531 49.59375 -27.566406 49.59375 -34.109375 L 49.59375 -80.84375 Z M 68.015625 -80.84375 "/></g></g></g><g fill="#2563eb" fill-opacity="1"><g transform="translate(718.536666, 1254.30796)"><g><path d="M 5.875 -80.84375 L 30.96875 -80.84375 C 38.550781 -80.84375 44.59375 -79.222656 49.09375 -75.984375 C 53.601562 -72.753906 55.859375 -67.515625 55.859375 -60.265625 C 55.859375 -52.171875 52.492188 -46.390625 45.765625 -42.921875 C 57.265625 -40.898438 63.015625 -34.109375 63.015625 -22.546875 C 63.015625 -15.742188 60.660156 -10.285156 55.953125 -6.171875 C 51.253906 -2.054688 44.785156 0 36.546875 0 L 5.875 0 Z M 24.296875 -49.203125 L 25.78125 -49.203125 C 29.894531 -49.203125 32.960938 -49.921875 34.984375 -51.359375 C 37.015625 -52.796875 38.03125 -55.144531 38.03125 -58.40625 C 38.03125 -63.894531 33.945312 -66.640625 25.78125 -66.640625 L 24.296875 -66.640625 Z M 24.296875 -14.203125 L 30.09375 -14.203125 C 39.101562 -14.203125 43.609375 -17.207031 43.609375 -23.21875 C 43.609375 -26.8125 42.476562 -29.390625 40.21875 -30.953125 C 37.96875 -32.523438 34.59375 -33.3125 30.09375 -33.3125 L 24.296875 -33.3125 Z M 24.296875 -14.203125 "/></g></g></g><g fill="#2563eb" fill-opacity="1"><g transform="translate(830.837414, 1254.30796)"><g><path d="M 46.9375 -80.84375 L 79.578125 0 L 59.78125 0 L 53.796875 -16.171875 L 23.03125 -16.171875 L 17.046875 0 L -2.75 0 L 29.890625 -80.84375 Z M 47.53125 -32.34375 L 38.515625 -55.859375 L 38.3125 -55.859375 L 29.296875 -32.34375 Z M 47.53125 -32.34375 "/></g></g></g><g fill="#2563eb" fill-opacity="1"><g transform="translate(954.701203, 1254.30796)"><g><path d="M 24.296875 -32.4375 L 24.296875 0 L 5.875 0 L 5.875 -80.84375 L 24.296875 -80.84375 L 24.296875 -48.609375 L 50.375 -48.609375 L 50.375 -80.84375 L 68.796875 -80.84375 L 68.796875 0 L 50.375 0 L 50.375 -32.4375 Z M 24.296875 -32.4375 "/></g></g></g></svg>